<svg xmlns="http://www.w3.org/2000/svg" viewBox="0 0 1920 1080" width="1920" height="1080">
  <defs>
    <radialGradient id="bg4" cx="50%" cy="40%" r="75%">
      <stop offset="0%" stop-color="#152238"/>
      <stop offset="100%" stop-color="#0D0D1A"/>
    </radialGradient>
    <pattern id="hex" width="60" height="52" patternUnits="userSpaceOnUse" patternTransform="scale(1.6)">
      <path d="M15 0 L45 0 L60 26 L45 52 L15 52 L0 26 Z" fill="none" stroke="#22D3EE" stroke-width="1" opacity="0.18"/>
    </pattern>
  </defs>
  <rect width="1920" height="1080" fill="url(#bg4)"/>
  <rect width="1920" height="1080" fill="url(#hex)"/>
  <!-- Central node graph -->
  <g stroke="#3B82F6" stroke-width="2" opacity="0.6">
    <line x1="960" y1="540" x2="700" y2="360"/>
    <line x1="960" y1="540" x2="1240" y2="380"/>
    <line x1="960" y1="540" x2="620" y2="700"/>
    <line x1="960" y1="540" x2="1320" y2="720"/>
    <line x1="960" y1="540" x2="960" y2="260"/>
    <line x1="960" y1="540" x2="960" y2="820"/>
  </g>
  <g fill="#F97316">
    <circle cx="960" cy="540" r="14"/>
    <circle cx="700" cy="360" r="8"/><circle cx="1240" cy="380" r="8"/>
    <circle cx="620" cy="700" r="8"/><circle cx="1320" cy="720" r="8"/>
    <circle cx="960" cy="260" r="8"/><circle cx="960" cy="820" r="8"/>
  </g>
  <g fill="#22D3EE" opacity="0.9">
    <circle cx="700" cy="360" r="3"/><circle cx="1240" cy="380" r="3"/>
    <circle cx="620" cy="700" r="3"/><circle cx="1320" cy="720" r="3"/>
  </g>
</svg>
