<svg xmlns="http://www.w3.org/2000/svg" viewBox="0 0 256 256" width="256" height="256" role="img" aria-label="Solux OS monochrome logo">
  <circle cx="128" cy="128" r="112" fill="none" stroke="currentColor" stroke-width="8" opacity="0.9"/>
  <g fill="currentColor">
    <g id="raysm"><rect x="123" y="18" width="10" height="26" rx="5"/></g>
    <use href="#raysm" transform="rotate(30 128 128)"/>
    <use href="#raysm" transform="rotate(60 128 128)"/>
    <use href="#raysm" transform="rotate(90 128 128)"/>
    <use href="#raysm" transform="rotate(120 128 128)"/>
    <use href="#raysm" transform="rotate(150 128 128)"/>
    <use href="#raysm" transform="rotate(180 128 128)"/>
    <use href="#raysm" transform="rotate(210 128 128)"/>
    <use href="#raysm" transform="rotate(240 128 128)"/>
    <use href="#raysm" transform="rotate(270 128 128)"/>
    <use href="#raysm" transform="rotate(300 128 128)"/>
    <use href="#raysm" transform="rotate(330 128 128)"/>
  </g>
  <circle cx="128" cy="128" r="70" fill="currentColor"/>
  <path d="M156 100 c-6-10-20-16-34-16 c-18 0-32 10-32 26 c0 16 16 22 32 26 c16 4 24 8 24 16 c0 10-12 16-26 16 c-14 0-26-6-32-16"
        fill="none" stroke="#ffffff" stroke-width="14" stroke-linecap="round" stroke-linejoin="round"/>
</svg>
